<?xml version="1.0" standalone="no"?><!DOCTYPE svg PUBLIC "-//W3C//DTD SVG 1.1//EN" "http://www.w3.org/Graphics/SVG/1.1/DTD/svg11.dtd"><svg t="1635239182963" class="icon" viewBox="0 0 1024 1024" version="1.1" xmlns="http://www.w3.org/2000/svg" p-id="5880" xmlns:xlink="http://www.w3.org/1999/xlink" width="200" height="200"><defs><style type="text/css"></style></defs><path d="M132.8 837.824c-8.533333 15.04-8.234667 15.509333 10.24 15.509333h737.92c18.453333 0 18.752-0.512 10.24-15.509333L519.722667 181.824c-8.405333-14.869333-7.04-14.869333-15.445334 0L132.8 837.802667zM593.962667 139.733333L965.461333 795.733333c41.002667 72.469333-1.258667 142.933333-84.501333 142.933334H143.04c-83.306667 0-125.461333-70.506667-84.48-142.890667l371.477333-656c41.088-72.597333 122.88-72.576 163.946667 0zM512 789.333333a42.666667 42.666667 0 1 0 0-85.333333 42.666667 42.666667 0 0 0 0 85.333333z m-42.666667-384v213.333334a42.666667 42.666667 0 1 0 85.333334 0V405.333333a42.666667 42.666667 0 1 0-85.333334 0z" fill="" p-id="5881"></path></svg>